<?xml version="1.0" encoding="UTF-8" standalone="no"?>
<!DOCTYPE svg PUBLIC "-//W3C//DTD SVG 1.1//EN" "http://www.w3.org/Graphics/SVG/1.1/DTD/svg11.dtd">
<svg width="100%" height="100%" viewBox="0 0 250 250" version="1.1" xmlns="http://www.w3.org/2000/svg" xmlns:xlink="http://www.w3.org/1999/xlink" xml:space="preserve" xmlns:serif="http://www.serif.com/" style="fill-rule:evenodd;clip-rule:evenodd;stroke-linejoin:round;stroke-miterlimit:1.41421;">
    <g transform="matrix(3.67647,0,0,3.67647,125,125)">
        <g id="bits-01" serif:id="bits 01">
            <clipPath id="_clip1">
                <path d="M0,-31C-17.121,-31 -31,-17.121 -31,0C-31,17.121 -17.121,31 0,31C17.121,31 31,17.121 31,0C31,-17.121 17.121,-31 0,-31ZM0,-23C12.703,-23 23,-12.703 23,0C23,12.703 12.703,23 0,23C-12.703,23 -23,12.703 -23,0C-23,-12.703 -12.703,-23 0,-23Z"/>
            </clipPath>
            <g clip-path="url(#_clip1)">
                <path d="M0,0L734.204,317.718L688.594,407.233L0,0Z" style="fill-rule:nonzero;"/>
                <path d="M0,0L50.232,798.421L-50.232,798.421L0,0Z" style="fill-rule:nonzero;"/>
                <path d="M0,0L-688.594,407.233L-734.204,317.718L0,0Z" style="fill-rule:nonzero;"/>
                <path d="M0,0L-675.462,-428.661L-616.411,-509.939L0,0Z" style="fill-rule:nonzero;"/>
                <path d="M0,0L-294.5,-743.821L-198.952,-774.867L0,0Z" style="fill-rule:nonzero;"/>
                <path d="M0,0L198.952,-774.867L294.5,-743.821L0,0Z" style="fill-rule:nonzero;"/>
                <path d="M0,0L616.411,-509.939L675.462,-428.661L0,0Z" style="fill-rule:nonzero;"/>
                <path d="M0,0L780.733,-174.515L796.45,-75.287L0,0Z" style="fill-rule:nonzero;"/>
            </g>
        </g>
    </g>
</svg>
