<?xml version="1.0" encoding="UTF-8" standalone="no"?>
<!DOCTYPE svg PUBLIC "-//W3C//DTD SVG 1.1//EN" "http://www.w3.org/Graphics/SVG/1.1/DTD/svg11.dtd">
<svg width="100%" height="100%" viewBox="0 0 250 250" version="1.1" xmlns="http://www.w3.org/2000/svg" xmlns:xlink="http://www.w3.org/1999/xlink" xml:space="preserve" xmlns:serif="http://www.serif.com/" style="fill-rule:evenodd;clip-rule:evenodd;stroke-linejoin:round;stroke-miterlimit:1.41421;">
    <g transform="matrix(3.67647,0,0,3.67647,125,125)">
        <g id="bits-00" serif:id="bits 00">
            <clipPath id="_clip1">
                <path d="M0,-31C-17.121,-31 -31,-17.121 -31,0C-31,17.121 -17.121,31 0,31C17.121,31 31,17.121 31,0C31,-17.121 17.121,-31 0,-31ZM0,-23C12.703,-23 23,-12.703 23,0C23,12.703 12.703,23 0,23C-12.703,23 -23,12.703 -23,0C-23,-12.703 -12.703,-23 0,-23Z"/>
            </clipPath>
            <g clip-path="url(#_clip1)">
                <path d="M0,0L774.867,198.952L743.821,294.5L0,0Z" style="fill-rule:nonzero;"/>
                <path d="M0,0L675.462,428.661L616.411,509.939L0,0Z" style="fill-rule:nonzero;"/>
                <path d="M0,0L-198.952,774.867L-294.5,743.821L0,0Z" style="fill-rule:nonzero;"/>
                <path d="M0,0L-743.821,294.5L-774.867,198.952L0,0Z" style="fill-rule:nonzero;"/>
                <path d="M0,0L-509.939,-616.411L-428.661,-675.462L0,0Z" style="fill-rule:nonzero;"/>
                <path d="M0,0L-174.515,-780.733L-75.287,-796.45L0,0Z" style="fill-rule:nonzero;"/>
                <path d="M0,0L428.661,-675.462L509.939,-616.411L0,0Z" style="fill-rule:nonzero;"/>
                <path d="M0,0L688.594,-407.233L734.204,-317.718L0,0Z" style="fill-rule:nonzero;"/>
            </g>
        </g>
    </g>
</svg>
